# xmcd CD database file
#
# Track frame offsets:
#	150
#	12097
#	25409
#	37356
#	50299
#	61201
#	71392
#	80030
#	90249
#	95998
#	115461
#	123134
#	127836
#	145592
#
# Disc length: 2100 seconds
#
# Revision: 0
# Processed by: cddbd v1.5.2PL0 Copyright (c) Steve Scherf et al.
# Submitted via: CDex 1.70beta2
#
DISCID=b808320e
DTITLE=Maria Hoffman - Just Blues
DYEAR=2004
DGENRE=Blues
TTITLE0=Flowers
TTITLE1=Bad News Blues
TTITLE2=Scattered Flowers
TTITLE3=Snail Houses
TTITLE4=Your Watch
TTITLE5=The Morning Comes
TTITLE6=On The street Corner
TTITLE7=Days With Your Hand In My Pocket
TTITLE8=Blues About What I Would Like
TTITLE9=Litanies To The Unknown
TTITLE10=The Skies
TTITLE11=Behind The Wall
TTITLE12=Used To Be A Sailor
TTITLE13=Knocking on Heavens Door
EXTD=YEAR: 2004
EXTT0=
EXTT1=
EXTT2=
EXTT3=
EXTT4=
EXTT5=
EXTT6=
EXTT7=
EXTT8=
EXTT9=
EXTT10=
EXTT11=
EXTT12=
EXTT13=
PLAYORDER=
